<svg id="Layer_1" data-name="Layer 1" xmlns="http://www.w3.org/2000/svg" viewBox="0 0 662.01 246.44"><defs><style>.cls-1{fill:#231f20;}.cls-2{fill:none;}</style></defs><path class="cls-1" d="M93.06,156c-10,.91-17.86,4.35-23.37,10.29-10,10.75-8.29,26.87-8.22,27.5l7.26-.88c0-.12-1.31-13.48,6.37-21.7,4.1-4.39,10.1-7,17.85-7.82,16.7,21.27,32.44,31.4,33.12,31.83l.9.57h43.51l-18.21-36.91-1.36-.51a131,131,0,0,1-19-8.83A56.38,56.38,0,0,0,63,60.38c0-.1-.07-.21-.09-.31-2.13,1.3-4.55,2.84-7.06,4.53a32.58,32.58,0,0,0-2.36,23l5.44-5c-1.16-2.81-1-6.41-.35-9.9C63.44,85,71.07,97.44,73.05,100.77c9.1,15.28,23.67,34.23,45.58,49.09a48.63,48.63,0,0,1-18.9,5.84M79.46,97.25a171.74,171.74,0,0,1-14-29.59,49.08,49.08,0,0,1,59.82,77.82C103.09,131.16,88.47,112.33,79.46,97.25Zm22.48,65.55a55.94,55.94,0,0,0,23.6-8.55A138.27,138.27,0,0,0,147,164.67l11.72,23.76H129.15C126,186.25,114.48,177.8,101.94,162.8Z"/><path class="cls-1" d="M176.69,73.61h20a95.45,95.45,0,0,1,11.22.67,30.26,30.26,0,0,1,10,2.87,18.14,18.14,0,0,1,7.19,6.48q2.77,4.25,2.77,11.56,0,8.63-5.2,13.93t-14.38,6.75l22.23,36.06H219.16l-21.24-35.18H186v35.18h-9.29ZM186,108.13h8.29c2.58,0,5.26-.08,8-.23a27.21,27.21,0,0,0,7.63-1.43,13.42,13.42,0,0,0,5.76-3.82q2.26-2.59,2.26-7.46a12.18,12.18,0,0,0-1.66-6.75,11.11,11.11,0,0,0-4.37-3.93,18.45,18.45,0,0,0-6.08-1.82,51.43,51.43,0,0,0-6.8-.45H186Z"/><path class="cls-1" d="M244.27,73.61h9.29V106.8h41.81V73.61h9.29v78.32h-9.29V115.42H253.56v36.51h-9.29Z"/><path class="cls-1" d="M360.51,153.92a42.36,42.36,0,0,1-16.42-3.1,39.36,39.36,0,0,1-12.94-8.57,38.55,38.55,0,0,1-8.52-13.05,45.89,45.89,0,0,1,0-32.85,38.45,38.45,0,0,1,8.52-13,39.39,39.39,0,0,1,12.94-8.58,45.2,45.2,0,0,1,32.85,0,39.39,39.39,0,0,1,12.94,8.58,38.45,38.45,0,0,1,8.52,13,45.89,45.89,0,0,1,0,32.85,38.55,38.55,0,0,1-8.52,13.05,39.36,39.36,0,0,1-12.94,8.57A42.41,42.41,0,0,1,360.51,153.92Zm0-8.63a30.42,30.42,0,0,0,12.56-2.55,29.51,29.51,0,0,0,9.79-7,32.16,32.16,0,0,0,6.36-10.34,36.62,36.62,0,0,0,0-25.33,32.1,32.1,0,0,0-6.36-10.35,29.65,29.65,0,0,0-9.79-7,32.18,32.18,0,0,0-25.11,0,29.65,29.65,0,0,0-9.79,7,31.76,31.76,0,0,0-6.36,10.35,36.47,36.47,0,0,0,0,25.33,31.82,31.82,0,0,0,6.36,10.34,29.51,29.51,0,0,0,9.79,7A30.37,30.37,0,0,0,360.51,145.29Z"/><path class="cls-1" d="M414.93,73.61H445a40.88,40.88,0,0,1,8.19.89,40.09,40.09,0,0,1,8.56,2.82,39.68,39.68,0,0,1,8.19,5,33.34,33.34,0,0,1,6.91,7.46,37,37,0,0,1,4.76,10.07,43.32,43.32,0,0,1,1.77,12.88,43.43,43.43,0,0,1-1.77,12.89,37.12,37.12,0,0,1-4.76,10.06,33.39,33.39,0,0,1-6.91,7.47A40.14,40.14,0,0,1,453.21,151a40.88,40.88,0,0,1-8.19.89H414.93Zm9.3,69.69h17.69a42.34,42.34,0,0,0,12.5-1.77,26.72,26.72,0,0,0,9.95-5.47A25.76,25.76,0,0,0,471,126.6a35.43,35.43,0,0,0,2.43-13.83A35.41,35.41,0,0,0,471,99a25.59,25.59,0,0,0-6.64-9.46A26.73,26.73,0,0,0,454.42,84a42.67,42.67,0,0,0-12.5-1.77H424.23Z"/><path class="cls-1" d="M498.33,73.61h49.22v8.63H507.62V106.8H544.9v8.62H507.62V143.3h41.92v8.63H498.33Z"/><path class="cls-1" d="M601.09,87.44a13.76,13.76,0,0,0-6.2-5.47,19.61,19.61,0,0,0-8.07-1.72,24,24,0,0,0-6.09.78,17.88,17.88,0,0,0-5.36,2.32,11.63,11.63,0,0,0-3.82,4.09,11.94,11.94,0,0,0-1.44,6,12.44,12.44,0,0,0,.83,4.7,10,10,0,0,0,2.71,3.71,20.18,20.18,0,0,0,5.09,3.1,70.32,70.32,0,0,0,7.86,2.88q4.53,1.42,8.79,3.09a30,30,0,0,1,7.52,4.2,18.77,18.77,0,0,1,5.2,6.36,21.7,21.7,0,0,1-6.53,26.88,26.52,26.52,0,0,1-8.79,4.2,38,38,0,0,1-10.29,1.39,39.84,39.84,0,0,1-6.86-.61,33.32,33.32,0,0,1-6.58-1.88,26.48,26.48,0,0,1-5.91-3.32,19.87,19.87,0,0,1-4.76-5l8-6.53a16.43,16.43,0,0,0,7.08,6.53,21.76,21.76,0,0,0,9.63,2.21,21.06,21.06,0,0,0,6-.89,17.88,17.88,0,0,0,5.48-2.6,14.16,14.16,0,0,0,4-4.25,11.08,11.08,0,0,0,1.55-5.86,12.49,12.49,0,0,0-1.22-5.92,10.87,10.87,0,0,0-3.76-3.93,29.6,29.6,0,0,0-6.41-3l-9.07-3.09a58.2,58.2,0,0,1-7.75-3,23.86,23.86,0,0,1-6.13-4.21,17.85,17.85,0,0,1-4.1-6,21.23,21.23,0,0,1-1.49-8.35,20.12,20.12,0,0,1,8.19-16.87,27.1,27.1,0,0,1,8.51-4.26,36.25,36.25,0,0,1,22.07.61,23.74,23.74,0,0,1,9.79,7.14Z"/><path class="cls-1" d="M332.83,180.5a4.91,4.91,0,0,0-1.95-1.59,5.6,5.6,0,0,0-2.41-.53,6,6,0,0,0-2.68.59,6.6,6.6,0,0,0-2.11,1.59,7.4,7.4,0,0,0-1.38,2.32,7.74,7.74,0,0,0-.49,2.75,8,8,0,0,0,.49,2.84,7.24,7.24,0,0,0,1.37,2.3,6.35,6.35,0,0,0,2.1,1.54,6.28,6.28,0,0,0,2.7.57,6.43,6.43,0,0,0,2.86-.63,6.53,6.53,0,0,0,2.19-1.82l1.55,1.31a7.16,7.16,0,0,1-2.84,2.32,9.24,9.24,0,0,1-3.76.74,8.93,8.93,0,0,1-3.51-.69,8.57,8.57,0,0,1-4.69-4.81,9.74,9.74,0,0,1-.68-3.67,9.88,9.88,0,0,1,.65-3.6,8.69,8.69,0,0,1,8.23-5.58,9.23,9.23,0,0,1,3.41.65,6.19,6.19,0,0,1,2.75,2.09Z"/><path class="cls-1" d="M351.74,194.8a9.47,9.47,0,0,1-3.66-.69,8.79,8.79,0,0,1-2.88-1.91,8.58,8.58,0,0,1-1.9-2.91,10.22,10.22,0,0,1,0-7.33,8.45,8.45,0,0,1,1.9-2.9,8.66,8.66,0,0,1,2.88-1.92,10.08,10.08,0,0,1,7.33,0,8.66,8.66,0,0,1,4.78,4.82,10.22,10.22,0,0,1,0,7.33,8.58,8.58,0,0,1-4.78,4.82A9.52,9.52,0,0,1,351.74,194.8Zm0-1.92a6.68,6.68,0,0,0,5-2.12,7.16,7.16,0,0,0,1.42-2.31,8.08,8.08,0,0,0,0-5.65,7,7,0,0,0-1.42-2.3,6.59,6.59,0,0,0-2.18-1.56,7.28,7.28,0,0,0-5.6,0,6.69,6.69,0,0,0-2.18,1.56,7,7,0,0,0-1.42,2.3,8.23,8.23,0,0,0,0,5.65,7.16,7.16,0,0,0,1.42,2.31,6.68,6.68,0,0,0,5,2.12Z"/><path class="cls-1" d="M369.87,176.9h2.61l10.11,14.5h.05V176.9h2.07v17.45H382.1L372,179.86h-.05v14.49h-2.07Z"/><path class="cls-1" d="M403,180a3,3,0,0,0-1.38-1.22,4.44,4.44,0,0,0-1.8-.38,5.1,5.1,0,0,0-1.35.17,3.83,3.83,0,0,0-1.2.52,2.56,2.56,0,0,0-.85.91,2.7,2.7,0,0,0-.32,1.33,2.66,2.66,0,0,0,.19,1.05,2.23,2.23,0,0,0,.6.83,5,5,0,0,0,1.13.69,18.34,18.34,0,0,0,1.75.64c.68.21,1.33.44,2,.69a6.62,6.62,0,0,1,1.68.93,4.34,4.34,0,0,1,1.16,1.42,4.84,4.84,0,0,1-1.46,6,5.75,5.75,0,0,1-2,.94,8.27,8.27,0,0,1-2.29.31,8.8,8.8,0,0,1-1.53-.14,7,7,0,0,1-1.46-.42,5.37,5.37,0,0,1-1.32-.74,4.2,4.2,0,0,1-1.06-1.12l1.77-1.45a3.64,3.64,0,0,0,1.58,1.45,4.76,4.76,0,0,0,3.49.3,4.16,4.16,0,0,0,1.22-.58,3.23,3.23,0,0,0,.89-.95,2.46,2.46,0,0,0,.34-1.31,2.81,2.81,0,0,0-.27-1.32,2.4,2.4,0,0,0-.84-.87,6.38,6.38,0,0,0-1.43-.67l-2-.69a12.47,12.47,0,0,1-1.73-.68,5.33,5.33,0,0,1-1.37-.93,4.08,4.08,0,0,1-.91-1.34,4.72,4.72,0,0,1,1.49-5.62,6.27,6.27,0,0,1,1.9-.95,7.79,7.79,0,0,1,2.22-.32,7.5,7.5,0,0,1,2.7.46,5.16,5.16,0,0,1,2.18,1.59Z"/><path class="cls-1" d="M427.19,187.7a10.37,10.37,0,0,1-.35,2.71,6.14,6.14,0,0,1-1.14,2.25,5.49,5.49,0,0,1-2,1.56,8.36,8.36,0,0,1-6.12,0,5.41,5.41,0,0,1-2-1.56,6.14,6.14,0,0,1-1.14-2.25,10,10,0,0,1-.35-2.71V176.9h2.07v10.5a9.2,9.2,0,0,0,.22,2,5,5,0,0,0,.74,1.75,3.72,3.72,0,0,0,1.38,1.22,5.35,5.35,0,0,0,4.34,0,3.88,3.88,0,0,0,1.38-1.22,5.2,5.2,0,0,0,.74-1.75,9.2,9.2,0,0,0,.22-2V176.9h2.07Z"/><path class="cls-1" d="M437.13,176.9h2.07v15.53h8v1.92H437.13Z"/><path class="cls-1" d="M464.57,178.82H458.8v15.53h-2.07V178.82H451V176.9h13.61Z"/><path class="cls-1" d="M472.68,176.9h2.08v17.45h-2.08Z"/><path class="cls-1" d="M484.77,176.9h2.61l10.11,14.5h.05V176.9h2.07v17.45H497l-10.11-14.49h-.05v14.49h-2.07Z"/><path class="cls-1" d="M524.46,193.17a12.19,12.19,0,0,1-3.16,1.23,14.24,14.24,0,0,1-3.37.4,10.13,10.13,0,0,1-3.75-.67,8.84,8.84,0,0,1-2.95-1.87,8.42,8.42,0,0,1-1.93-2.9,9.75,9.75,0,0,1-.69-3.73,9.31,9.31,0,0,1,.73-3.76,8.35,8.35,0,0,1,2-2.89,9,9,0,0,1,3-1.86,10.06,10.06,0,0,1,3.67-.67,10.83,10.83,0,0,1,3.32.52,7.17,7.17,0,0,1,2.85,1.78l-1.56,1.62a6,6,0,0,0-2.15-1.48,7,7,0,0,0-2.6-.51,7.08,7.08,0,0,0-2.79.54,6.71,6.71,0,0,0-3.71,3.8,8.17,8.17,0,0,0,0,5.79,6.94,6.94,0,0,0,1.48,2.31,6.68,6.68,0,0,0,2.28,1.51,7.72,7.72,0,0,0,2.93.55,10.31,10.31,0,0,0,2.22-.26,9.16,9.16,0,0,0,2.12-.76v-5.35h-4v-1.92h6.09Z"/><path class="cls-1" d="M537.36,176.9h5.18a10.75,10.75,0,0,1,2.3.23,5.84,5.84,0,0,1,1.95.79,3.93,3.93,0,0,1,1.35,1.48,5.41,5.41,0,0,1,0,4.65,4.33,4.33,0,0,1-1.4,1.48,5.66,5.66,0,0,1-1.86.76,8.77,8.77,0,0,1-1.92.22h-3.5v7.84h-2.07Zm2.07,7.69h3.5a4.23,4.23,0,0,0,2.53-.7,2.95,2.95,0,0,0,0-4.37,4.3,4.3,0,0,0-2.53-.7h-3.5Z"/><path class="cls-1" d="M557.65,176.9h2.07v15.53h8v1.92H557.65Z"/><path class="cls-1" d="M588.74,187.7a10,10,0,0,1-.36,2.71,6,6,0,0,1-1.13,2.25,5.45,5.45,0,0,1-2,1.56,7.31,7.31,0,0,1-3.05.58,7.39,7.39,0,0,1-3.06-.58,5.34,5.34,0,0,1-2-1.56,6.14,6.14,0,0,1-1.14-2.25,10,10,0,0,1-.36-2.71V176.9h2.08v10.5a9.2,9.2,0,0,0,.22,2,4.82,4.82,0,0,0,.74,1.75,3.72,3.72,0,0,0,1.38,1.22,5.35,5.35,0,0,0,4.34,0,3.88,3.88,0,0,0,1.38-1.22,5.2,5.2,0,0,0,.74-1.75,9.2,9.2,0,0,0,.22-2V176.9h2.07Z"/><path class="cls-1" d="M607,180a3,3,0,0,0-1.38-1.22,4.44,4.44,0,0,0-1.8-.38,5.1,5.1,0,0,0-1.35.17,3.83,3.83,0,0,0-1.2.52,2.56,2.56,0,0,0-.85.91,2.7,2.7,0,0,0-.32,1.33,2.85,2.85,0,0,0,.18,1.05,2.38,2.38,0,0,0,.61.83,4.8,4.8,0,0,0,1.13.69,18.34,18.34,0,0,0,1.75.64c.68.21,1.33.44,2,.69a6.8,6.8,0,0,1,1.68.93,4.34,4.34,0,0,1,1.16,1.42,4.84,4.84,0,0,1-1.46,6,5.75,5.75,0,0,1-2,.94,8.33,8.33,0,0,1-2.29.31,8.8,8.8,0,0,1-1.53-.14,7,7,0,0,1-1.46-.42,5.37,5.37,0,0,1-1.32-.74,4,4,0,0,1-1.06-1.12l1.77-1.45a3.64,3.64,0,0,0,1.58,1.45,4.8,4.8,0,0,0,2.14.5,4.91,4.91,0,0,0,1.35-.2,4.16,4.16,0,0,0,1.22-.58,3.23,3.23,0,0,0,.89-.95,2.46,2.46,0,0,0,.34-1.31,2.81,2.81,0,0,0-.27-1.32,2.4,2.4,0,0,0-.84-.87,6.38,6.38,0,0,0-1.43-.67l-2-.69a12.47,12.47,0,0,1-1.73-.68,5.33,5.33,0,0,1-1.37-.93,4.08,4.08,0,0,1-.91-1.34,4.69,4.69,0,0,1-.33-1.86,4.6,4.6,0,0,1,.49-2.19,4.71,4.71,0,0,1,1.33-1.57,6.27,6.27,0,0,1,1.9-.95,7.79,7.79,0,0,1,2.22-.32,7.5,7.5,0,0,1,2.7.46,5.16,5.16,0,0,1,2.18,1.59Z"/><rect class="cls-2" width="662.01" height="246.44"/></svg>